<mxfile host="app.diagrams.net" agent="Mozilla/5.0 (Macintosh; Intel Mac OS X 10_15_7) AppleWebKit/537.36 (KHTML, like Gecko) Chrome/131.0.0.0 Safari/537.36" version="25.0.3">
  <diagram name="第 1 页" id="NWSEYQC2WmPgvcaIydRp">
    <mxGraphModel dx="894" dy="581" grid="1" gridSize="10" guides="1" tooltips="1" connect="1" arrows="1" fold="1" page="1" pageScale="1" pageWidth="827" pageHeight="1169" math="0" shadow="0">
      <root>
        <mxCell id="0" />
        <mxCell id="1" parent="0" />
        <mxCell id="zteYq2BVPjF1BCGbW42e-1" value="&lt;b&gt;配置管理&lt;/b&gt;" style="rounded=1;whiteSpace=wrap;html=1;fillColor=#dae8fc;strokeColor=#000000;strokeWidth=2;" vertex="1" parent="1">
          <mxGeometry x="120" y="440" width="550" height="50" as="geometry" />
        </mxCell>
        <mxCell id="zteYq2BVPjF1BCGbW42e-2" value="" style="rounded=0;whiteSpace=wrap;html=1;fillColor=none;dashed=1;strokeWidth=2;" vertex="1" parent="1">
          <mxGeometry x="120" y="320" width="550" height="100" as="geometry" />
        </mxCell>
        <mxCell id="zteYq2BVPjF1BCGbW42e-3" value="" style="rounded=0;whiteSpace=wrap;html=1;fillColor=none;dashed=1;strokeWidth=2;" vertex="1" parent="1">
          <mxGeometry x="120" y="200" width="550" height="100" as="geometry" />
        </mxCell>
        <mxCell id="zteYq2BVPjF1BCGbW42e-4" value="" style="rounded=0;whiteSpace=wrap;html=1;fillColor=none;dashed=1;strokeWidth=2;" vertex="1" parent="1">
          <mxGeometry x="120" y="80" width="550" height="100" as="geometry" />
        </mxCell>
        <mxCell id="zteYq2BVPjF1BCGbW42e-5" value="&lt;b&gt;监控管理&lt;/b&gt;" style="rounded=1;whiteSpace=wrap;html=1;fillColor=#ffe6cc;strokeColor=#000000;strokeWidth=2;" vertex="1" parent="1">
          <mxGeometry x="700" y="80" width="60" height="410" as="geometry" />
        </mxCell>
        <mxCell id="zteYq2BVPjF1BCGbW42e-7" value="&lt;b&gt;&lt;font style=&quot;font-size: 14px;&quot;&gt;配置层&lt;/font&gt;&lt;/b&gt;" style="text;html=1;align=center;verticalAlign=middle;resizable=0;points=[];autosize=1;strokeColor=none;fillColor=none;" vertex="1" parent="1">
          <mxGeometry x="45" y="450" width="70" height="30" as="geometry" />
        </mxCell>
        <mxCell id="zteYq2BVPjF1BCGbW42e-8" value="&lt;b&gt;&lt;font style=&quot;font-size: 14px;&quot;&gt;过滤链层&lt;/font&gt;&lt;/b&gt;" style="text;html=1;align=center;verticalAlign=middle;resizable=0;points=[];autosize=1;strokeColor=none;fillColor=none;" vertex="1" parent="1">
          <mxGeometry x="40" y="360" width="80" height="30" as="geometry" />
        </mxCell>
      </root>
    </mxGraphModel>
  </diagram>
</mxfile>
